<?xml version="1.0" encoding="UTF-8"?>
<!DOCTYPE svg PUBLIC "-//W3C//DTD SVG 1.1//EN"
  "http://www.w3.org/Graphics/SVG/1.1/DTD/svg11.dtd">
<!-- Created with Inkpad (http://inkpad.envoza.com/) --><svg xmlns:inkpad="http://inkpad.envoza.com/svg_extensions" height="360pt" xmlns:xlink="http://www.w3.org/1999/xlink" xmlns="http://www.w3.org/2000/svg" width="648pt" version="1.1" viewBox="0,0,648,360">
<g id="Layer 1" inkpad:layerName="Layer 1" visibility="hidden">
<use opacity="1" xlink:href="#Image" transform="matrix(0.56446 0 0 0.56446 0.7365 -28.7647)"/>
</g>
<g id="Layer 2" inkpad:layerName="Layer 2">
<path stroke="#ffffff" stroke-width="4.2" d="M319.658+131.672C317.121+131.672+314.893+133.436+312.263+133.638C301.313+134.48+289.467+135.56+278.75+132.702C269.099+130.128+258.488+123.128+253.663+114.167C236.88+82.9984+252.561+40.7099+290.639+37.7808C298.179+37.2008+308.288+36.1553+315.539+37.9681C326.846+40.7946+344.465+56.937+344.465+69.6085" fill="none" stroke-linecap="round" opacity="1" stroke-linejoin="round"/>
<path stroke="#ffffff" stroke-width="4.2" d="M239.247+78.1271C239.247+61.3956+247.135+52.4525+258.156+41.4317" fill="none" stroke-linecap="round" opacity="1" stroke-linejoin="round"/>
<path stroke="#ffffff" stroke-width="4.2" d="M231.571+69.5149C231.571+63.5027+232.702+57.6136+235.97+52.4777C237.143+50.6346+238.66+49.0667+240.089+47.4227C240.147+47.356+242.055+45.4812+242.055+45.6441" fill="none" stroke-linecap="round" opacity="1" stroke-linejoin="round"/>
<path stroke="#ffffff" stroke-width="4.2" d="M366.236+129.618C389.873+148.527+428.955+133.887+439.572+106.585C448.04+84.8099+438.021+62.7812+419.764+49.7406C386.087+25.6857+344.298+47.1738+337.031+87.1457C334.76+99.6367+342.285+111.655+350.666+120.036C352.505+121.875+355.729+127.315+358.774+127.315" fill="none" stroke-linecap="round" opacity="1" stroke-linejoin="round"/>
<path stroke="#ffffff" stroke-width="4.2" d="M359.59+125.664C369.403+137.44+383.492+144.417+398.857+145.477C403.664+145.808+408.865+145.982+413.559+144.849C415.168+144.461+421.752+141.237+419.566+142.877" fill="none" stroke-linecap="round" opacity="1" stroke-linejoin="round"/>
<path stroke="#ffffff" stroke-width="4.2" d="M344.619+114.458C342.511+116.144+342.808+118.492+342.378+120.913C340.611+130.849+342.404+134.779+349.639+141.801C363.856+155.6+383.611+163.586+403.608+163.586C415.422+163.586+428.922+161.287+437.585+152.29C440.464+149.301+442.332+145.499+443.233+141.443C443.633+139.646+443.682+137.889+443.682+136.064C443.682+135.927+443.233+134.404+443.233+135.167" fill="none" stroke-linecap="round" opacity="1" stroke-linejoin="round"/>
<path stroke="#ffffff" stroke-width="4.2" d="M443.283+58.0933C448.975+61.888+451.217+74.0998+451.781+80.3039C452.003+82.7475+451.854+85.202+452.167+87.643C452.234+88.1663+453.089+92.8564+452.36+91.7632" fill="none" stroke-linecap="round" opacity="1" stroke-linejoin="round"/>
<path stroke="#ffffff" stroke-width="4.2" d="M452.102+51.9773C456.3+56.6416+459.635+61.5375+459.635+68.1363C459.635+69.5874+460.178+71.9618+458.927+72.9003" fill="none" stroke-linecap="round" opacity="1" stroke-linejoin="round"/>
<path stroke="#ffffff" stroke-width="4.2" d="M359.647+36.8499C368.995+29.994+377.686+26.6552+389.483+26.6552" fill="none" stroke-linecap="round" opacity="1" stroke-linejoin="round"/>
<path stroke="#ffffff" stroke-width="4.2" d="M361.888+25.3742C365.686+23.4754+369.08+20.7628+373.151+19.3427C374.539+18.8584+376.059+18.3851+377.527+18.2219C378.164+18.1511+380.089+18.2219+379.449+18.2219" fill="none" stroke-linecap="round" opacity="1" stroke-linejoin="round"/>
<path stroke="#ffffff" stroke-width="4.2" d="M432.049+120.921C441.904+125.849+449.831+123.405+459.859+119.255C460.233+119.101+468.767+115.771+468.767+115.272C468.767+115.215+466.628+118.481+466.449+119.255C465.537+123.206+462.938+125.908+461.018+129.322C460.868+129.587+458.934+132.67+458.555+132.292C458.19+131.926+463.007+130.649+463.263+130.553C466.662+129.279+470.321+127.757+473.981+127.439C484.231+126.548+499.643+130.502+508.599+135.478C509.234+135.831+506.469+136.833+506.209+136.999C504.316+138.204+503.202+139.72+501.719+141.344C500.996+142.136+498.153+143.707+499.112+143.227C503.126+141.22+510.965+141.61+514.682+143.734C515.231+144.048+522.127+147.935+520.331+147.935" fill="none" stroke-linecap="round" opacity="1" stroke-linejoin="round"/>
<path stroke="#ffffff" stroke-width="4.2" d="M482.744+120.559C488.35+120.559+494.79+120.323+500.126+122.152C501.654+122.676+509.08+125.267+508.454+125.267" fill="none" stroke-linecap="round" opacity="1" stroke-linejoin="round"/>
<path stroke="#ffffff" stroke-width="4.2" d="M495.418+108.537C500.034+108.537+507.344+109.987+511.134+112.593C512.033+113.211+517.077+117.662+516.276+117.662" fill="none" stroke-linecap="round" opacity="1" stroke-linejoin="round"/>
<path stroke="#ffffff" stroke-width="4.2" d="M471.512+155.883C477.967+155.883+484.669+156.437+490.988+157.791C492.855+158.191+495.529+158.607+497.03+159.858C497.383+160.152+500.049+160.812+498.858+160.812" fill="none" stroke-linecap="round" opacity="1" stroke-linejoin="round"/>
<path stroke="#ffffff" stroke-width="4.2" d="M470.637+156.837C476.656+159.345+481.32+163.163+486.616+166.774C487.434+167.331+490.295+171.066+490.67+171.066" fill="none" stroke-linecap="round" opacity="1" stroke-linejoin="round"/>
<path stroke="#ffffff" stroke-width="4.2" d="M462.052+167.489C468.955+168.64+475.115+171.186+482.244+171.384C482.356+171.388+488.842+172.036+488.842+171.066" fill="none" stroke-linecap="round" opacity="1" stroke-linejoin="round"/>
<path stroke="#ffffff" stroke-width="4.2" d="M462.29+168.602C464.781+172.339+467.616+175.772+470.955+178.777C471.805+179.542+476.739+182.355+476.122+182.355" fill="none" stroke-linecap="round" opacity="1" stroke-linejoin="round"/>
<path stroke="#ffffff" stroke-width="4.2" d="M430.81+174.564C439.31+180.231+448.663+182.673+458.872+182.673C461.378+182.673+474.279+182.434+471.909+182.434" fill="none" stroke-linecap="round" opacity="1" stroke-linejoin="round"/>
<path stroke="#ffffff" stroke-width="4.2" d="M431.208+174.723C431.208+179.56+434.868+184.886+437.567+188.635C438.542+189.989+439.51+191.332+440.906+192.292C441.078+192.41+442.926+193.166+442.496+193.166" fill="none" stroke-linecap="round" opacity="1" stroke-linejoin="round"/>
<path stroke="#ffffff" stroke-width="4.2" d="M396.151+175.916C406.122+177.91+412.944+186.953+423.179+189.191C426.605+189.941+430.352+191.216+433.831+191.576C434.7+191.666+439.161+191.576+438.601+191.576" fill="none" stroke-linecap="round" opacity="1" stroke-linejoin="round"/>
<path stroke="#ffffff" stroke-width="4.2" d="M395.589+176.341C395.589+179.924+395.906+183.519+395.906+187.047C395.906+188.054+395.747+192.88+395.747+192.123" fill="none" stroke-linecap="round" opacity="1" stroke-linejoin="round"/>
<path stroke="#ffffff" stroke-width="4.2" d="M349.432+192.361C351.101+190.692+352.51+188.902+354.031+187.127C362.702+177.011+358.291+177.158+370.527+182.289C372.906+183.286+375.462+183.696+377.903+184.509C382.402+186.009+386.352+188.596+390.909+189.823C396.299+191.274+397.043+192.123+396.699+192.123" fill="none" stroke-linecap="round" opacity="1" stroke-linejoin="round"/>
<path stroke="#ffffff" stroke-width="4.2" d="M329.605+179.434C334.246+183.653+339.51+186.466+344.515+190.22C344.548+190.244+351.595+194.423+350.78+194.423" fill="none" stroke-linecap="round" opacity="1" stroke-linejoin="round"/>
<path stroke="#ffffff" stroke-width="4.2" d="M276.295+185.405C281.066+183.236+289.882+176.407+295.213+176.407C296.012+176.407+294.986+178.137+295.444+178.791C296.292+180.003+297.691+181.381+298.828+182.329C302.395+185.301+311.363+188.404+311.363+188.404C311.363+188.404+314.368+186.625+315.9+185.789C318.432+184.408+320.818+182.931+323.437+181.713C324.03+181.438+328.355+178.724+327.82+180.329" fill="none" stroke-linecap="round" opacity="1" stroke-linejoin="round"/>
<path stroke="#ffffff" stroke-width="4.2" d="M228.307+181.636C235.83+178.293+243.25+174.418+251.378+172.792C254.112+172.246+256.806+171.535+259.607+171.408C260.279+171.378+263.716+171.485+263.298+171.485" fill="none" stroke-linecap="round" opacity="1" stroke-linejoin="round"/>
<path stroke="#ffffff" stroke-width="4.2" d="M264.067+172.023C264.368+174.729+270.532+181.284+272.68+182.944C272.975+183.172+277.371+185.587+277.371+185.712" fill="none" stroke-linecap="round" opacity="1" stroke-linejoin="round"/>
<path stroke="#ffffff" stroke-width="4.2" d="M232.776+164.557C230.679+167.913+229.496+172.474+229.008+176.378C228.831+177.795+228.684+179.239+228.565+180.663C228.543+180.927+228.343+182.794+228.343+182.067" fill="none" stroke-linecap="round" opacity="1" stroke-linejoin="round"/>
<path stroke="#ffffff" stroke-width="4.2" d="M194.431+174.901C202.748+173.621+210.741+168.603+219.33+167.069C221.444+166.692+233.811+165.591+231.742+165.591" fill="none" stroke-linecap="round" opacity="1" stroke-linejoin="round"/>
<path stroke="#ffffff" stroke-width="4.2" d="M194.284+174.383C196.9+168.497+203.54+162.801+208.765+159.385C209.454+158.934+217.039+154.458+217.039+154.952" fill="none" stroke-linecap="round" opacity="1" stroke-linejoin="round"/>
<path stroke="#ffffff" stroke-width="4.2" d="M180.172+153.77C188.233+152.763+196.312+151.631+204.479+152.514C205.734+152.65+216.591+155.281+214.897+155.765" fill="none" stroke-linecap="round" opacity="1" stroke-linejoin="round"/>
<path stroke="#ffffff" stroke-width="4.2" d="M231.156+122.162C218.079+123.351+223.44+138.887+231.047+143.958C247.148+154.692+268.28+156.677+287.172+155.837C300.128+155.261+312.74+148.945+321.937+140.035C324.893+137.171+334.127+125.808+333.816+126.739" fill="none" stroke-linecap="round" opacity="1" stroke-linejoin="round"/>
<path stroke="#ffffff" stroke-width="4.2" d="M250.664+129.682C267.969+133.675+277.229+137.746+296+137.746C298.017+137.746+310.712+135.878+310.712+132.842" fill="none" stroke-linecap="round" opacity="1" stroke-linejoin="round"/>
<path stroke="#ffffff" stroke-width="4.2" d="M180.149+109.244C188.208+107.046+196.769+103.604+205.321+105.436C212.728+107.023+219.296+110.993+226.962+111.845C232.737+112.487+237.939+111.331+243.496+110.173C244.613+109.94+250.216+107.015+249.44+107.015" fill="none" stroke-linecap="round" opacity="1" stroke-linejoin="round"/>
<path stroke="#ffffff" stroke-width="4.2" d="M178.477+110.359C181.934+110.359+189.757+114.823+192.688+116.582C193.791+117.244+198.675+120.669+198.447+120.669" fill="none" stroke-linecap="round" opacity="1" stroke-linejoin="round"/>
<path stroke="#ffffff" stroke-width="4.2" d="M147.64+135.623C147.945+133.184+153.993+129.709+155.999+128.75C164.535+124.668+173.456+120.941+183.028+120.205C186.661+119.925+190.343+120.019+193.989+120.019C194.881+120.019+199.266+119.907+198.819+120.205" fill="none" stroke-linecap="round" opacity="1" stroke-linejoin="round"/>
<path stroke="#ffffff" stroke-width="4.2" d="M148.754+135.902C152.377+136.161+155.984+137.033+159.622+137.388C160.296+137.454+165.824+137.93+165.381+138.596" fill="none" stroke-linecap="round" opacity="1" stroke-linejoin="round"/>
<path stroke="#ffffff" stroke-width="4.2" d="M138.667+167.298C138.667+159.485+147.926+149.21+153.797+145.016C156.22+143.285+158.543+141.471+161.041+139.881C161.829+139.38+165.608+138.157+165.167+138.597" fill="none" stroke-linecap="round" opacity="1" stroke-linejoin="round"/>
<path stroke="#ffffff" stroke-width="4.2" d="M137.475+168.307C140.564+167.465+153.202+162.582+153.613+164.639" fill="none" stroke-linecap="round" opacity="1" stroke-linejoin="round"/>
<path stroke="#ffffff" stroke-width="4.2" d="M134.907+197.466C134.907+188.407+140.172+178.332+145.819+171.516C146.566+170.615+155.172+162.914+155.172+163.447" fill="none" stroke-linecap="round" opacity="1" stroke-linejoin="round"/>
<path stroke="#ffffff" stroke-width="4.2" d="M135.916+198.108C137.618+196.974+143.24+194.465+144.077+192.79" fill="none" stroke-linecap="round" opacity="1" stroke-linejoin="round"/>
<path stroke="#ffffff" stroke-width="4.2" d="M144.077+193.982C144.077+195.955+142.793+203.814+142.793+202.968" fill="none" stroke-linecap="round" opacity="1" stroke-linejoin="round"/>
<path stroke="#ffffff" stroke-width="4.2" d="M478.147+206.459C478.147+198.995+481.036+192.396+486.7+187.44C488.031+186.275+491.19+186.243+491.989+184.964C494.399+181.108+487.978+182.597+490.076+179.45C492.264+176.169+503.389+167.598+506.394+165.72C511.577+162.481+518.069+160.519+520.349+153.678C521.485+150.272+514.551+131.807+513.034+127.907C510.764+122.069+507.873+116.275+506.507+110.126C505.904+107.414+504.931+104.453+504.931+101.685C504.931+101.381+505.046+99.5472+504.706+99.5472" fill="none" stroke-linecap="round" opacity="1" stroke-linejoin="round"/>
<path stroke="#ffffff" stroke-width="4.2" d="M505.6+99.7691C505.6+88.9487+500.855+77.6275+503.42+66.3423C506.337+53.5093+514.804+47.5396+514.804+33.5211C514.804+33.2444+514.925+37.0039+514.925+39.0922C514.925+43.2371+518.356+47.2338+519.891+50.9611C520.414+52.2317+520.893+53.4059+521.587+54.5945C521.982+55.2716+522.919+57.3161+522.919+56.5323" fill="none" stroke-linecap="round" opacity="1" stroke-linejoin="round"/>
<path stroke="#ffffff" stroke-width="4.2" d="M523.161+46.48C523.161+40.0063+536.12+33.0064+536.12+30.2511C536.12+29.0528+534.603+32.1569+534.182+33.2789C533.412+35.3321+533.616+38.0202+533.334+40.1822C532.328+47.9012+531.854+55.8785+532.244+63.6779C533.182+82.4288+540.448+103.088+548.11+120.116C549.624+123.48+550.548+132.242+552.955+134.649" fill="none" stroke-linecap="round" opacity="1" stroke-linejoin="round"/>
<path stroke="#ffffff" stroke-width="4.2" d="M536.362+56.5323C536.362+49.5789+552.829+27.7077+560.827+27.7077" fill="none" stroke-linecap="round" opacity="1" stroke-linejoin="round"/>
<path stroke="#ffffff" stroke-width="4.2" d="M556.951+22.3788C561.697+22.3788+566.113+18.261+570.516+18.261C571.887+18.261+567.865+19.7279+567.488+21.0466C566.496+24.5178+565.611+28.1748+564.581+31.7044C564.031+33.5916+562.739+35.2421+563.128+34.8533" fill="none" stroke-linecap="round" opacity="1" stroke-linejoin="round"/>
<path stroke="#ffffff" stroke-width="4.2" d="M569.305+34.1266C572.17+34.1266+574.89+33.1088+577.54+32.0677C578.444+31.7128+581.296+31.22+580.326+31.22C576.385+31.22+572.401+41.3181+571.121+43.5733C562.084+59.4953+559.737+73.1241+559.737+91.2913C559.737+99.3266+560.543+106.889+561.917+114.787C561.975+115.122+562.897+120.964+563.128+120.964" fill="none" stroke-linecap="round" opacity="1" stroke-linejoin="round"/>
<path stroke="#ffffff" stroke-width="4.2" d="M572.696+58.8334C574.807+56.0183+576.785+53.8119+579.357+51.4456C582.612+48.4511+585.433+46.4201+589.288+44.3C590.966+43.3774+594.496+41.8778+594.496+41.8778C594.496+41.8778+591.79+44.4237+591.226+46.1167C590.766+47.4959+590.195+56.4112+588.44+56.4112" fill="none" stroke-linecap="round" opacity="1" stroke-linejoin="round"/>
<path stroke="#ffffff" stroke-width="4.2" d="M493.584+91.4163C493.584+81.6396+491.029+72.1116+493.219+62.2541C493.92+59.1025+495.044+56.1245+496.063+53.068C496.273+52.4372+498.541+48.5449+498.541+48.6207" fill="none" stroke-linecap="round" opacity="1" stroke-linejoin="round"/>
<path stroke="#ffffff" stroke-width="4.2" d="M485.783+76.6164C485.783+68.427+486.422+60.3839+489.355+52.6305C489.711+51.6895+493.55+45.2004+493.803+45.7045" fill="none" stroke-linecap="round" opacity="1" stroke-linejoin="round"/>
<path stroke="#ffffff" stroke-width="4.2" d="M582.521+135.716C582.521+130.749+580.024+124.606+579.566+119.344C578.017+101.528+582.26+85.2693+588.675+68.8743C589.652+66.3789+598.58+48.7874+601.601+49.7944" fill="none" stroke-linecap="round" opacity="1" stroke-linejoin="round"/>
<path stroke="#ffffff" stroke-width="4.2" d="M594.092+119.713C592.492+112.514+590.625+103.871+592.738+96.571C592.966+95.7816+597.462+85.6323+598.031+87.3388" fill="none" stroke-linecap="round" opacity="1" stroke-linejoin="round"/>
<path stroke="#ffffff" stroke-width="4.2" d="M600.739+111.589C600.739+107.565+600.072+103.487+602.708+100.264" fill="none" stroke-linecap="round" opacity="1" stroke-linejoin="round"/>
<path stroke="#ffffff" stroke-width="4.2" d="M584.641+135.28C590.008+140.646+595.208+148.055+590.601+155.542C588.554+158.869+585.846+161.923+583.541+165.077C583.364+165.32+578.786+170.172+579.232+170.395C580.192+170.875+586.268+168.11+587.484+167.736C587.632+167.691+590.968+166.636+590.784+166.819C585.056+172.548+580.432+179.481+574.281+185.248C572.108+187.285+569.673+189.201+567.313+191.024C566.191+191.891+563.921+193.591+563.921+193.591C563.921+193.591+565.191+193.172+565.846+193.041C568.637+192.483+571.486+192.795+574.281+192.124C575.662+191.793+579.736+190.749+578.315+190.749C572.328+190.749+564.235+199.022+560.161+202.485C558.501+203.897+556.812+205.539+555.577+207.344C555.504+207.45+553.355+210.931+553.744+210.736" fill="none" stroke-linecap="round" opacity="1" stroke-linejoin="round"/>
<path stroke="#ffffff" stroke-width="4.2" d="M520.597+146.665C528.443+150.152+536.794+158.161+541.001+165.523C542.543+168.222+543.843+170.932+544.865+173.87C545.35+175.264+545.793+179.674+545.793+178.198" fill="none" stroke-linecap="round" opacity="1" stroke-linejoin="round"/>
<path stroke="#ffffff" stroke-width="4.2" d="M149.313+165.27C160.923+163.335+171.302+155.541+182.899+163.273C186.917+165.951+191.188+177.096+194.7+181.246C198.963+186.285+208.103+194.361+214.851+195.588C217.65+196.097+223.384+198.614+223.384+195.769" fill="none" stroke-linecap="round" opacity="1" stroke-linejoin="round"/>
<path stroke="#ffffff" stroke-width="4.2" d="M124.737+192.7C125.411+186.637+143.639+168.067+149.13+168.067" fill="none" stroke-linecap="round" opacity="1" stroke-linejoin="round"/>
<path stroke="#ffffff" stroke-width="4.2" d="M126.539+190.177C125.878+191.719+123.794+195.02+124.737+196.906C125.806+199.044+132.714+193.605+131.827+195.824C128.708+203.621+123.474+210.462+121.853+219.376C121.65+220.492+124.377+221.659+124.377+221.659C124.377+221.659+123.649+222.319+123.415+222.741C121.921+225.431+122.798+228.23+122.214+231.152C120.7+238.72+117.856+246.079+114.283+252.902C112.98+255.389+106.787+261.55+107.073+261.073" fill="none" stroke-linecap="round" opacity="1" stroke-linejoin="round"/>
<path stroke="#ffffff" stroke-width="4.2" d="M106.352+262.515C115.409+262.515+129.217+265.114+137.354+260.232C140.388+258.412+135.343+257.449+134.47+256.867C134.396+256.817+134.27+256.667+134.35+256.627C138.003+254.8+142.474+255.405+146.486+252.782C151.572+249.457+153.38+245.612+155.138+240.044C155.865+237.744+157.301+232.33+157.301+232.474C157.301+235.007+160.549+239.041+163.55+237.04C169.413+233.131+171.466+220.5+174.004+214.45C174.33+213.672+176.49+208.765+175.566+207.841C174.576+206.851+173.783+213.208+174.484+212.647C174.679+212.492+181.166+191.051+181.574+189.456C182.15+187.202+182.35+185.02+182.656+182.727C182.689+182.475+183.497+178.963+183.497+179.482" fill="none" stroke-linecap="round" opacity="1" stroke-linejoin="round"/>
<path stroke="#ffffff" stroke-width="4.2" d="M99.7431+258.79C105.114+254.016+111.679+248.297+115.484+242.207C115.831+241.653+119.668+234.757+119.089+234.757" fill="none" stroke-linecap="round" opacity="1" stroke-linejoin="round"/>
<path stroke="#ffffff" stroke-width="4.2" d="M64.6556+248.936C79.5688+248.936+87.5997+248.241+99.1423+237.16C103.43+233.044+105.094+227.234+109.476+223.582C110.463+222.76+114.884+221.134+114.884+222.741" fill="none" stroke-linecap="round" opacity="1" stroke-linejoin="round"/>
<path stroke="#ffffff" stroke-width="4.2" d="M57.6862+238.242C59.2755+238.242+71.1444+238.775+71.1444+241.246" fill="none" stroke-linecap="round" opacity="1" stroke-linejoin="round"/>
<path stroke="#ffffff" stroke-width="4.2" d="M58.1668+237.881C66.5444+234.291+75.7165+227.517+79.4356+219.016C79.9318+217.882+83.2738+211.679+81.8389+210.244C80.7113+209.116+77.2509+213.86+77.513+212.287C78.7432+204.906+92.0255+184.481+96.8592+178.16C104.203+168.557+119.156+160.566+130.985+159.175C133.346+158.897+145.045+159.489+145.045+163.02" fill="none" stroke-linecap="round" opacity="1" stroke-linejoin="round"/>
<path stroke="#ffffff" stroke-width="4.2" d="M13.7854+199.704C13.7854+197.054+6.76737+188.236+7.50012+186.771C7.90863+185.954+8.77166+188.114+9.55493+188.584C11.1834+189.561+12.8962+190.355+14.5107+191.364C17.0417+192.946+29.8338+199.127+32.7622+196.199C35.7864+193.175+24.0595+186.771+24.0595+186.771C24.0595+186.771+30.2278+188.539+33.3666+189.188C39.9411+190.548+46.6056+189.84+52.706+187.013C67.2695+180.264+82.3955+162.563+97.3075+159.696C103.901+158.428+120.534+158.095+119.064+160.3" fill="none" stroke-linecap="round" opacity="1" stroke-linejoin="round"/>
<path stroke="#ffffff" stroke-width="4.2" d="M17.049+205.264C25.316+207.172+32.6901+212.303+41.2232+213.725C44.558+214.281+50.7512+212.446+53.5521+213.846C53.9682+214.054+48.6362+218.79+55.3652+219.164C60.1222+219.429+65.5065+220.018+69.7488+217.472C71.2798+216.554+79.4249+208.159+75.6715+211.912C74.7879+212.796+80.1937+212.515+79.1768+213.242" fill="none" stroke-linecap="round" opacity="1" stroke-linejoin="round"/>
<path stroke="#ffffff" stroke-width="4.2" d="M38.564+231.251C47.2915+230.379+56.0666+226.22+64.7931+224.604C65.3719+224.496+72.7706+222.995+72.7706+223.999" fill="none" stroke-linecap="round" opacity="1" stroke-linejoin="round"/>
<path stroke="#ffffff" stroke-width="4.2" d="M24.6638+228.834C24.6638+215.702+37.7078+202.018+46.1789+193.298C49.183+190.205+53.8595+184.266+58.5078+183.749" fill="none" stroke-linecap="round" opacity="1" stroke-linejoin="round"/>
<path stroke="#ffffff" stroke-width="4.2" d="M170.483+101.43C174.692+96.6941+185.679+93.5502+191.844+92.8104C193.05+92.6657+203.514+92.6396+201.214+93.5599" fill="none" stroke-linecap="round" opacity="1" stroke-linejoin="round"/>
<path stroke="#ffffff" stroke-width="4.2" d="M174.343+88.3917C176.79+86.2506+185.375+81.5271+185.375+84.4677" fill="none" stroke-linecap="round" opacity="1" stroke-linejoin="round"/>
<path stroke="#ffffff" stroke-width="4.2" d="M129.426+157.181C129.426+152.437+133.784+147.815+137.1+144.878C137.26+144.737+141.485+142.272+141.485+142.137" fill="none" stroke-linecap="round" opacity="1" stroke-linejoin="round"/>
<path stroke="#ffffff" stroke-width="4.2" d="M120.351+149.081C120.351+145.821+125.687+140.189+129.061+140.189" fill="none" stroke-linecap="round" opacity="1" stroke-linejoin="round"/>
<path stroke="#ffffff" stroke-width="4.2" d="M352.431+95.9675C356.678+93.0059+359.121+88.3848+364.6+87.6377C374.704+86.2599+384.6+94.9695+380.561+105.74C376.179+117.427+356.865+120.139+350.314+108.346C348.922+105.842+348.841+101.627+349.895+98.9923C350.145+98.3668+351.362+96.7132+352.431+95.9675Z" fill="none" stroke-linecap="round" opacity="1" stroke-linejoin="round"/>
<path stroke="#ffffff" stroke-width="4.2" d="M352.826+97.2705C352.826+102.744+360.152+105.428+363.902+101.366C366.255+98.8161+366.848+95.2991+367.066+91.919C367.112+91.2093+367.047+87.5104+366.973+87.7308" fill="none" stroke-linecap="round" opacity="1" stroke-linejoin="round"/>
<path stroke="#ffffff" stroke-width="4.2" d="M310.345+130.142C315.794+130.142+320.809+131.134+325.605+127.537C338.678+117.732+321.052+99.3147+308.437+104.88C302.124+107.665+297.566+113.793+298.807+120.884C299.958+127.463+311.735+133.169+317.789+130.142" fill="none" stroke-linecap="round" opacity="1" stroke-linejoin="round"/>
<path stroke="#ffffff" stroke-width="4.2" d="M300.714+114.557C306.366+118.904+312.976+116.407+314.858+108.881C315.416+106.649+314.413+104.229+311.834+104.229" fill="none" stroke-linecap="round" opacity="1" stroke-linejoin="round"/>
<path stroke="#ffffff" stroke-width="4.2" d="M334.956+110.416C334.274+112.805+331.698+117.907+328.675+117.907" fill="none" stroke-linecap="round" opacity="1" stroke-linejoin="round"/>
<path stroke="#ffffff" stroke-width="4.2" d="M190.03+206.551C243.462+206.551+296.83+207.432+350.291+207.432C369.059+207.432+387.794+206.551+406.552+206.551C409.077+206.551+434.297+205.236+429.614+206.992" fill="none" stroke-linecap="round" opacity="1" stroke-linejoin="round"/>
<path stroke="#ffffff" stroke-width="4.2" d="M422.992+206.644C463.426+206.644+504.062+210.066+544.438+207.344C558.342+206.406+572.339+206.442+586.272+206.085C588.193+206.035+603.089+206.323+601.803+206.644" fill="none" stroke-linecap="round" opacity="1" stroke-linejoin="round"/>
<path stroke="#ffffff" stroke-width="4.2" d="M293.475+252.527C295.614+260.328+307.004+260.774+313.301+259.594C315.35+259.21+321.099+258.156+321.781+255.428C323.488+248.599+314.04+242.254+308.019+242.856C305.176+243.14+302.397+245.408+299.984+246.724C298.98+247.272+292.997+250.782+293.475+252.527Z" fill="none" stroke-linecap="round" opacity="1" stroke-linejoin="round"/>
<path stroke="#ffffff" stroke-width="4.2" d="M372.985+260.709C373.243+262.086+378.785+262.053+380.421+262.305C384.467+262.928+397.078+265.438+396.308+257.735C396.087+255.534+392.185+253.791+390.649+252.585C388.412+250.827+385.526+246.902+382.234+247.724C379.169+248.491+372.759+252.886+370.918+255.341C370.464+255.947+369.099+258.745+369.83+259.476C370.545+260.192+372.742+259.408+372.985+260.709Z" fill="none" stroke-linecap="round" opacity="1" stroke-linejoin="round"/>
<path stroke="#ffffff" stroke-width="4.2" d="M404.272+292.33C407.256+295.85+416.743+298.156+420.9+295.662C423.487+294.11+420.639+285.37+418.907+283.638C417.536+282.267+414.82+283.716+413.342+283.913C409.424+284.435+399.828+287.086+404.272+292.33Z" fill="none" stroke-linecap="round" opacity="1" stroke-linejoin="round"/>
<path stroke="#ffffff" stroke-width="4.2" d="M344.698+290.376C349.514+298.61+362.164+296.918+370.703+294.406C376.019+292.842+381.118+287.611+379.382+281.249C378.278+277.199+369.608+275.563+366.363+274.842C362.943+274.082+357.395+271.618+353.825+272.638C348.922+274.038+342.478+286.581+344.698+290.376Z" fill="none" stroke-linecap="round" opacity="1" stroke-linejoin="round"/>
<path stroke="#ffffff" stroke-width="4.2" d="M320.283+272.336C324.755+274.82+327.719+279.321+331.161+274.025C331.959+272.797+332.589+271.032+331.904+269.565C329.016+263.376+325.578+265.714+321.904+269.633C321.383+270.189+317.71+274.971+317.85+274.971" fill="none" stroke-linecap="round" opacity="1" stroke-linejoin="round"/>
<path stroke="#ffffff" stroke-width="4.2" d="M268.027+292.575C266.446+295.737+271.131+300.059+273.812+300.906C279.97+302.85+289.795+302.184+292.866+295.274C296.296+287.556+285.774+276.023+277.592+278.998C271.587+281.181+269.977+288.674+268.027+292.575Z" fill="none" stroke-linecap="round" opacity="1" stroke-linejoin="round"/>
<path stroke="#ffffff" stroke-width="4.2" d="M240.411+278.651C248.27+274.907+265.914+270.881+270.11+262.49C270.197+262.316+263.659+259.894+262.627+259.635C259.6+258.879+251.232+255.292+248.356+257.09C243.934+259.853+241.105+268.581+241.105+273.444C241.105+274.26+239.844+278.921+240.411+278.651Z" fill="none" stroke-linecap="round" opacity="1" stroke-linejoin="round"/>
<path stroke="#ffffff" stroke-width="4.2" d="M267.207+259.162C275.093+259.162+283.154+254.977+291.322+254.977" fill="none" stroke-linecap="round" opacity="1" stroke-linejoin="round"/>
<path stroke="#ffffff" stroke-width="4.2" d="M324.659+251.552C335.476+251.552+346.885+251.05+357.525+253.077C358.596+253.281+366.57+254.006+366.57+255.391" fill="none" stroke-linecap="round" opacity="1" stroke-linejoin="round"/>
<path stroke="#ffffff" stroke-width="4.2" d="M400.593+261.127C416.227+262.17+436.239+276.66+443.432+290.148C446.43+295.768+447.628+308.831+442.588+313.87C432.035+324.424+403.914+331.081+390.459+333.371C384.5+334.385+378.467+334.932+372.494+335.828C370.415+336.139+368.313+336.518+366.199+336.518C365.277+336.518+362.513+336.595+363.435+336.595" fill="none" stroke-linecap="round" opacity="1" stroke-linejoin="round"/>
<path stroke="#ffffff" stroke-width="4.2" d="M364.856+336.077C334.088+336.077+304.143+338.277+273.646+332.428C265.551+330.876+257.983+328.975+250.172+326.371C249.678+326.206+244.045+324.845+244.045+324.581" fill="none" stroke-linecap="round" opacity="1" stroke-linejoin="round"/>
<path stroke="#ffffff" stroke-width="4.2" d="M245.065+324.475C242.105+324.475+238.473+322.006+235.664+321.07C224.159+317.235+216.206+312.944+217.825+299.455C218.707+292.104+222.571+284.733+228.04+279.839C228.813+279.148+237.219+273.025+237.219+273.844" fill="none" stroke-linecap="round" opacity="1" stroke-linejoin="round"/>
</g>
</svg>
